<svg id="Icon_ionic-logo-facebook" data-name="Icon ionic-logo-facebook" xmlns="http://www.w3.org/2000/svg" width="21.12" height="21.12" viewBox="0 0 21.12 21.12">
  <path id="Icon_ionic-logo-facebook-2" data-name="Icon ionic-logo-facebook" d="M24.454,4.5H5.666A1.167,1.167,0,0,0,4.5,5.666V24.454A1.167,1.167,0,0,0,5.666,25.62H15.06V17.26H12.536V14.18H15.06V11.9A4.012,4.012,0,0,1,19.389,7.69c1.166,0,2.42.088,2.711.126v2.849H20.159c-1.325,0-1.579.627-1.579,1.551V14.18h3.157l-.412,3.08H18.58v8.36h5.874a1.167,1.167,0,0,0,1.166-1.166V5.666A1.167,1.167,0,0,0,24.454,4.5Z" transform="translate(-4.5 -4.5)"/>
</svg>
