<?xml version="1.0" encoding="UTF-8" standalone="no"?>
<!-- Created with Inkscape (http://www.inkscape.org/) -->

<svg
   version="1.1"
   id="svg3869"
   width="238.08"
   height="67.839996"
   viewBox="0 0 238.08 67.839996"
   sodipodi:docname="signature.svg"
   inkscape:version="1.1.2 (b8e25be8, 2022-02-05)"
   xmlns:inkscape="http://www.inkscape.org/namespaces/inkscape"
   xmlns:sodipodi="http://sodipodi.sourceforge.net/DTD/sodipodi-0.dtd"
   xmlns="http://www.w3.org/2000/svg"
   xmlns:svg="http://www.w3.org/2000/svg">
  <defs
     id="defs3873" />
  <sodipodi:namedview
     id="namedview3871"
     pagecolor="#ffffff"
     bordercolor="#666666"
     borderopacity="1.0"
     inkscape:pageshadow="2"
     inkscape:pageopacity="0.0"
     inkscape:pagecheckerboard="0"
     showgrid="false"
     inkscape:zoom="152.82258"
     inkscape:cx="105.87441"
     inkscape:cy="30.247494"
     inkscape:window-width="1920"
     inkscape:window-height="1035"
     inkscape:window-x="1792"
     inkscape:window-y="23"
     inkscape:window-maximized="1"
     inkscape:current-layer="g3875" />
  <g
     inkscape:groupmode="layer"
     inkscape:label="Image"
     id="g3875"
     style="display:inline">
    <path
       style="fill:#000000;stroke-width:0.64"
       d="m 17.396179,60.091099 c -0.4224,-0.4224 -0.768,-1.82619 -0.768,-3.11953 0,-2.57392 0.651116,-4.57361 4.152303,-12.75247 1.280808,-2.992 3.067328,-7.311998 3.970045,-9.599998 0.902716,-2.288 2.180481,-5.207213 2.839477,-6.487139 1.447766,-2.811903 1.470793,-3.112861 0.238175,-3.112861 -0.528,0 -0.96,0.281579 -0.96,0.62573 0,0.496933 -7.223575,6.767426 -12.8,11.111162 -3.146605,2.451037 -7.8823077,5.016416 -9.8496987,5.335676 -2.06712,0.33545 -2.346622,0.19798 -2.991417,-1.47128 -1.16472195,-3.01524 -0.35304095,-7.285883 2.49989,-13.153111 2.625146,-5.398772 7.2463747,-10.768176 9.2677337,-10.768176 1.61977,0 3.093721,2.334815 2.878506,4.559703 -0.152391,1.575417 -0.763203,2.4943 -2.379659,3.579866 -2.205593,1.481214 -5.8253547,1.991013 -5.8253547,0.82043 0,-0.352 -0.304997,-0.64 -0.677771,-0.64 -0.372774,0 -0.488561,0.306148 -0.257305,0.680329 0.231257,0.374181 0.01983,1.166181 -0.469832,1.76 -2.809352,3.406922 -4.485188,12.919669 -2.276024,12.919669 1.235179,0 13.3159637,-8.429789 16.8664777,-11.769174 0.415671,-0.390953 1.962251,-1.718824 3.436846,-2.950824 1.474594,-1.232 3.277867,-2.744 4.007271,-3.36 1.441422,-1.217316 3.396205,-1.473687 3.984063,-0.522512 0.44632,0.722162 0.03635,1.834583 -6.973743,18.92251 -5.794205,14.12407 -6.894156,18.62282 -4.519983,18.48652 0.704,-0.0404 1.817504,-0.30009 2.474454,-0.57705 1.06006,-0.4469 1.111533,-0.34862 0.457482,0.87349 -0.553939,1.03504 -1.335382,1.37704 -3.146454,1.37704 -1.325215,0 -2.755082,-0.3456 -3.177482,-0.768 z m -4.128,-36.876023 c 1.102079,-1.378453 1.036481,-4.595974 -0.0937,-4.595974 -0.935146,0 -4.8662987,4.111006 -4.8662987,5.088936 0,1.502034 3.6554577,1.138727 4.9599997,-0.492962 z M 144.12418,48.579099 c -1.99256,-1.99256 0.58927,-13.819274 5.63227,-25.799998 0.59266,-1.407999 1.43798,-4.071999 1.87848,-5.919999 0.45491,-1.908428 1.15849,-3.36 1.62861,-3.36 1.39801,0 1.63022,1.83636 0.58968,4.663255 -0.54596,1.48321 -1.23821,3.560745 -1.53835,4.616744 -0.30014,1.056 -2.00718,6.096 -3.79342,11.2 -3.65875,10.454518 -3.92456,12.159998 -1.89521,12.159998 1.25494,0 1.28723,0.10668 0.42523,1.40492 -1.16561,1.75551 -1.93485,2.02751 -2.92729,1.03508 z M 34.875956,46.151679 c -0.790725,-1.27942 0.419008,-6.03406 2.779737,-10.925271 1.761164,-3.648968 2.848407,-5.09902 4.438791,-5.92 2.912744,-1.503603 3.720454,-1.378003 5.354892,0.832693 0.780735,1.056 1.812053,1.92 2.291817,1.92 1.05732,0 2.719284,3.762471 2.747261,6.219443 l 0.02027,1.780555 1.41274,-1.919998 c 3.779624,-5.136743 6.395073,-6.042056 9.774896,-3.383487 1.19536,0.94027 1.885971,1.161007 2.054124,0.656548 1.22128,-3.663832 7.30041,-9.962121 11.163924,-11.566394 1.233248,-0.51209 0.326886,1.216145 -1.886234,3.596619 -3.908397,4.20395 -4.598368,5.148713 -6.791437,9.299353 -1.687776,3.194309 -2.391513,3.957359 -3.649755,3.957359 -1.285873,0 -1.593518,-0.35876 -1.757046,-2.049006 -0.13304,-1.375117 -0.616943,-2.1819 -1.471336,-2.453074 -1.368897,-0.434473 -4.410421,1.182508 -4.410421,2.344737 0,1.311893 -3.949203,5.677343 -5.136008,5.677343 -1.698124,0 -2.072965,-0.9319 -2.233641,-5.553099 -0.07825,-2.250689 -0.330954,-4.280835 -0.561554,-4.511436 -0.642334,-0.642334 -2.294872,1.245847 -6.148797,7.025585 -3.034552,4.55092 -3.798572,5.30599 -5.539937,5.47502 -1.110965,0.10784 -2.214494,-0.11873 -2.452286,-0.50349 z m 4.152223,-4.85035 c 0,-0.50723 0.225905,-0.92223 0.502011,-0.92223 0.276106,0 1.053702,-0.936 1.727989,-2.079998 1.362111,-2.310964 2.034113,-3.198169 3.706985,-4.894119 0.661051,-0.67017 0.967263,-1.594957 0.731527,-2.209275 -0.532175,-1.386827 -0.956686,-1.321921 -2.579885,0.394451 -2.629643,2.780586 -6.764358,12.287091 -4.821967,11.086631 0.403337,-0.24928 0.73334,-0.86823 0.73334,-1.37546 z m 41.825357,-0.0169 c -1.167776,-1.78225 -0.87497,-6.062125 0.904806,-13.225378 0.982714,-3.955233 2.046592,-5.270919 3.006381,-3.717949 0.204653,0.331127 -0.243053,3.65843 -0.994886,7.394004 -0.75184,3.735575 -1.187418,6.971519 -0.967949,7.190987 0.219469,0.219469 2.436211,-1.811833 4.926093,-4.514004 2.525164,-2.740456 5.053459,-4.913037 5.717446,-4.913037 0.654714,0 1.702394,0.866758 2.328179,1.92613 1.236557,2.093329 1.987731,2.172536 3.048851,0.321485 1.196383,-2.08701 3.833833,-4.126455 5.363493,-4.14739 0.95717,-0.0131 0.99701,0.201691 1.02112,0.71866 0.0194,0.415087 0.12193,0.311266 0.32255,0.257305 0.88258,-0.237389 3.12769,1.418781 3.25856,2.905231 0.0551,0.626248 0.288,1.321031 0.64,1.538579 1.07944,0.667129 0.7113,1.6 -0.63141,1.6 -0.83935,0 -1.57838,-0.734665 -2.1747,-2.161871 -0.49681,-1.189028 -1.23334,-2.365852 -1.63673,-2.615164 -0.95637,-0.591071 -3.87716,1.331274 -3.87716,2.551789 0,0.519885 -0.288,0.945246 -0.64,0.945246 -0.352,0 -0.649582,0.504 -0.661294,1.12 -0.02874,1.512125 -2.178976,4 -3.457133,4 -1.140531,0 -2.281574,-2.421384 -2.281574,-4.841664 0,-0.857085 -0.262157,-1.558336 -0.582566,-1.558336 -0.320416,0 -2.455546,2.263907 -4.744743,5.030904 -4.687936,5.666413 -6.345357,6.547823 -7.887334,4.194473 z m 151.134644,-0.13622 c -2.40438,-0.83331 -4.42168,-2.339806 -8.11361,-6.05911 -4.30083,-4.332729 -5.19874,-4.950048 -7.2,-4.950048 -3.04534,0 -2.93442,-1.014683 0.50309,-4.602268 2.73298,-2.852297 4.05238,-6.040401 2.96431,-7.162712 -0.30127,-0.31074 -0.95751,-0.407743 -1.45832,-0.215563 -1.10065,0.422361 -4.71178,6.673076 -5.31738,9.204175 -0.23902,0.999002 -0.64759,2.104368 -0.90794,2.456368 -0.26034,0.352 -0.99791,2.8 -1.63904,5.44 -0.64113,2.64 -1.52533,5.206638 -1.9649,5.703638 -0.67228,0.76013 -0.9276,0.62186 -1.60765,-0.8707 -0.69804,-1.532028 -0.60853,-2.310944 0.65542,-5.703639 6.26543,-16.817627 7.25799,-21.403548 5.87776,-27.157013 -0.42572,-1.774555 -1.3428,-3.6776272 -1.96562,-4.30484 -0.91577,-0.9222333 -1.75527,-0.8892465 -3.24718,-0.05291 -1.1021,0.6178162 -2.29862,0.9707066 -2.58409,1.025466 0,0 -1.80032,0.7812454 -3.26431,2.3694844 -1.86194,1.3406179 -3.08844,2.6436866 -3.74871,3.7640126 -0.86056,0.685736 -2.74978,4.986879 -3.62183,6.542453 -0.31501,0.561917 -0.8,1.295381 -0.8,1.83304 0,0.930192 -1.3102,4.302834 -2.64876,6.818302 -0.34164,0.642011 -0.94728,3.604755 -1.34589,6.583876 -0.55907,4.178458 -0.9402,5.374553 -1.6674,5.232707 -0.70164,-0.13686 -0.95741,-1.200926 -1.00031,-4.161414 -0.0392,-2.701761 -0.38043,-4.300201 -1.06401,-4.983516 -1.13078,-1.130329 -3.15363,-0.675211 -3.15363,0.709526 0,0.49034 -0.28252,0.891527 -0.62781,0.891527 -0.34529,0 -0.79624,0.648 -1.00212,1.44 -0.20587,0.792 -1.11657,1.988531 -2.02377,2.658959 -2.16259,1.598166 -3.35495,0.834341 -4.67886,-2.997291 l -1.01854,-2.94783 -3.49577,3.803081 c -3.92239,4.267217 -5.96846,4.898179 -7.00897,2.161417 -0.77313,-2.033489 -0.79994,-7.329829 -0.0431,-8.5248 0.81321,-1.284047 1.88602,0.976929 1.61314,3.399729 -0.42583,3.780871 0.53189,3.694965 4.74251,-0.425396 4.64301,-4.543474 5.79986,-4.506036 6.71253,0.217236 0.29915,1.548192 0.744,3.026029 0.98855,3.284082 0.24455,0.258053 1.5871,-0.976957 2.98345,-2.744467 2.84218,-3.597661 4.87506,-4.495194 6.615,-2.920573 0.62952,0.569719 1.30664,1.035853 1.5047,1.035853 0.38323,0 1.90012,-3.427385 3.79925,-8.584345 1.27668,-3.466747 6.04071,-10.2495305 7.6919,-11.9007255 0.57855,-0.578548 1.11594,-1.0670643 1.84815,-1.7189735 1.14688,-0.6521069 1.76146,-1.5454178 3.01566,-2.148383 1.21729,-0.6363136 1.76699,-1.1340468 2.66712,-1.2921706 1.6287,-0.68405814 4.71891,-0.87261142 5.9272,0.5245996 1.60528,1.856264 2.42982,5.223884 2.42982,9.923975 0,3.989907 0.11647,4.405022 1.12,3.991886 2.64586,-1.089251 3.45373,-1.073979 4.32892,0.08184 1.83049,2.417461 0.80112,8.216571 -1.84889,10.415877 -0.82555,0.685143 -0.11762,1.626006 4.9178,6.536006 4.26314,4.156943 6.71891,6.035007 8.92217,6.823252 1.672,0.59818 3.04,1.452 3.04,1.89738 0,1.0638 -0.93902,0.99708 -4.8,-0.34106 z m -101.28,-11.669052 c -1.69174,-0.679996 -1.91128,-2.983917 -0.53474,-5.611838 2.43431,-4.647291 14.21274,-13.653956 20.85474,-15.947098 6.93173,-2.393169 18.2518,-2.280783 22.15472,0.219953 4.02783,2.580766 4.53784,3.810464 0.9438,2.275592 -1.37581,-0.587555 -2.41169,-1.214167 -2.30195,-1.392472 0.10973,-0.178306 -0.9966,-0.461919 -2.45853,-0.630252 -9.60888,-1.106415 -17.69188,1.006609 -26.01804,6.801523 -3.47092,2.415726 -11.52,10.654788 -11.52,11.791915 0,0.446508 0.47663,1.33851 1.05919,1.982227 1.20419,1.330612 0.35572,1.529357 -2.17919,0.51045 z M 100.65283,13.27869 c -2.014277,-1.352021 -2.552043,-2.663955 -1.614853,-3.939588 1.104083,-1.502787 4.977523,-3.719246 6.600943,-3.777191 0.96781,-0.03454 1.71231,-0.33914 1.65446,-0.676879 -0.0579,-0.337739 0.5428,-0.658417 1.3348,-0.712617 2.21512,-0.151592 1.71231,0.79394 -1.07652,2.024369 -1.38409,0.610657 -3.13902,1.952261 -3.89985,2.981342 l -1.38334,1.871057 1.34571,1.432439 c 2.35634,2.508211 0.38034,3.040067 -2.96135,0.797068 z"
       id="path3879"
       sodipodi:nodetypes="ssssssssssssssssscsssssscssssssssssssssssssssssssscsssssssssssssssssssssssssssssssssssssssssssssssssssssssssssssssssccssssscsssssscsscssssssssscccsssssssssssssssssssssssscssscss" />
  </g>
</svg>
