<svg id="Icon_awesome-twitter" data-name="Icon awesome-twitter" xmlns="http://www.w3.org/2000/svg" width="21.12" height="17.153" viewBox="0 0 21.12 17.153">
  <path id="Icon_awesome-twitter-2" data-name="Icon awesome-twitter" d="M18.949,7.656c.013.188.013.375.013.563A12.231,12.231,0,0,1,6.647,20.534,12.232,12.232,0,0,1,0,18.591a8.954,8.954,0,0,0,1.045.054A8.669,8.669,0,0,0,6.419,16.8a4.336,4.336,0,0,1-4.047-3,5.459,5.459,0,0,0,.817.067,4.578,4.578,0,0,0,1.139-.147A4.329,4.329,0,0,1,.858,9.465V9.411a4.359,4.359,0,0,0,1.957.549,4.335,4.335,0,0,1-1.34-5.789A12.3,12.3,0,0,0,10.4,8.7a4.886,4.886,0,0,1-.107-.992,4.333,4.333,0,0,1,7.491-2.962A8.522,8.522,0,0,0,20.53,3.7a4.317,4.317,0,0,1-1.9,2.385,8.677,8.677,0,0,0,2.493-.67,9.3,9.3,0,0,1-2.171,2.238Z" transform="translate(0 -3.381)"/>
</svg>
