<?xml version="1.0" encoding="UTF-8" standalone="no"?>
<!-- Created with Inkscape (http://www.inkscape.org/) -->

<svg
   width="64"
   height="64"
   viewBox="0 0 16.933333 16.933333"
   version="1.1"
   id="svg1795"
   inkscape:version="1.1.2 (b8e25be8, 2022-02-05)"
   sodipodi:docname="drawing2.svg"
   xmlns:inkscape="http://www.inkscape.org/namespaces/inkscape"
   xmlns:sodipodi="http://sodipodi.sourceforge.net/DTD/sodipodi-0.dtd"
   xmlns="http://www.w3.org/2000/svg"
   xmlns:svg="http://www.w3.org/2000/svg">
  <sodipodi:namedview
     id="namedview1797"
     pagecolor="#ffffff"
     bordercolor="#666666"
     borderopacity="1.0"
     inkscape:pageshadow="2"
     inkscape:pageopacity="0.0"
     inkscape:pagecheckerboard="0"
     inkscape:document-units="mm"
     showgrid="false"
     inkscape:zoom="7.2466938"
     inkscape:cx="61.476311"
     inkscape:cy="34.567488"
     inkscape:window-width="1312"
     inkscape:window-height="969"
     inkscape:window-x="487"
     inkscape:window-y="212"
     inkscape:window-maximized="0"
     inkscape:current-layer="layer1"
     units="px"
     width="64px" />
  <defs
     id="defs1792" />
  <g
     inkscape:label="Layer 1"
     inkscape:groupmode="layer"
     id="layer1">
    <path
       id="path1445"
       sodipodi:nodetypes="ssssssssssssssssscssccscsssssssssssssssssssssssssssssccs"
       d="m 3.9763347,14.97944 c -0.086522,-0.07217 -0.1730399,-0.324781 -0.1730399,-0.559344 0,-0.469126 0.1514098,-0.829994 0.9084594,-2.309547 0.2811903,-0.5413 0.6705302,-1.317163 0.8651991,-1.73216 C 5.7716232,9.9633923 6.0528136,9.4401366 6.1825932,9.2055736 6.4854136,8.7003599 6.5070437,8.6462309 6.2258492,8.6462309 c -0.1081495,0 -0.2163,0.05413 -0.2163,0.10826 0,0.09022 -1.5573594,1.2269454 -2.7686392,2.0028081 -0.6705292,0.451084 -1.7087691,0.902167 -2.1197391,0.956297 -0.45422912,0.05413 -0.49748933,0.03609 -0.64889905,-0.27065 C 0.21271162,10.901646 0.38574945,10.125782 1.0130214,9.0612266 1.5970312,8.1229742 2.5920109,7.148634 3.02461,7.148634 c 0.3460806,0 0.6705302,0.4149963 0.62727,0.8299927 -0.043256,0.288694 -0.1730398,0.4510832 -0.5191195,0.6495612 -0.4758593,0.270649 -1.25454,0.3608657 -1.25454,0.144346 0,-0.07217 -0.064894,-0.126303 -0.1514097,-0.126303 -0.086522,0 -0.1081495,0.05413 -0.064894,0.126303 0.043256,0.07217 0,0.2165197 -0.1081495,0.3247787 -0.58400972,0.6134737 -0.95171948,2.3275904 -0.4758602,2.3275904 0.2595602,0 2.8767897,-1.5156397 3.6554694,-2.1291124 0.086522,-0.07217 0.4326,-0.306737 0.7354195,-0.5412997 0.4939659,-0.3673504 1.1929665,-0.9608102 1.7303991,-0.7036895 0.086522,0.1263033 0,0.3247804 -1.5140992,3.4101886 -1.25454,2.544111 -1.4924691,3.356061 -0.9733496,3.338017 0.1514097,0 0.3893398,-0.05413 0.5407496,-0.10826 0.2379301,-0.07217 0.2379301,-0.05413 0.1081505,0.16239 -0.1297806,0.180433 -0.2811904,0.252607 -0.6705302,0.252607 -0.3244496,0.01804 -0.62727,-0.05413 -0.7137894,-0.126303 z M 3.0895044,8.3214503 C 3.3274346,8.0688436 3.3058045,7.4914576 3.0678763,7.4914576 c -0.1946699,0 -1.05987,0.7397757 -1.05987,0.9202096 0,0.2706497 0.8003098,0.1984757 1.0815001,-0.090216 z M 9.7515422,14.70879 c -0.4326001,-0.360867 0.1297806,-2.489981 1.2112798,-4.655181 0.12978,-0.2526057 0.30282,-0.7397754 0.41097,-1.0645554 0.108149,-0.3428227 0.25956,-0.6134728 0.34608,-0.6134728 0.30282,0 0.346079,0.3247791 0.129779,0.8480358 -0.108149,0.2706497 -0.259559,0.6495607 -0.324449,0.8299924 -0.06489,0.198477 -0.4326,1.100644 -0.82194,2.020854 -0.8003101,1.89455 -0.8435693,2.201286 -0.41097,2.201286 0.28119,0 0.28119,0.01804 0.08652,0.252607 -0.23793,0.306737 -0.4109698,0.360867 -0.6272698,0.180434 z M 6.8531234,11.262512 C 6.4854136,11.136209 6.4421534,10.721212 6.7449729,10.252086 7.2640933,9.4220936 9.8164325,7.7801506 11.265642,7.3831974 12.758112,6.9501569 15.22393,6.9682011 16.0675,7.4192834 16.932699,7.8884103 17.04085,8.1049306 16.26217,7.8342798 15.959351,7.72602 15.743051,7.6177609 15.76468,7.5816735 15.786308,7.5455872 15.548381,7.4914576 15.22393,7.4734134 13.147451,7.2749373 11.395422,7.6538473 9.6001325,8.7003599 8.8430829,9.1334006 7.1126836,10.630995 7.1126836,10.829473 c 0,0.07217 0.1081495,0.234563 0.2379292,0.360866 0.2379301,0.216521 0.043256,0.252607 -0.4974894,0.07217 z"
       style="stroke-width:0.197555" />
  </g>
</svg>
